<svg width="512" height="512" viewBox="0 0 512 512" xmlns="http://www.w3.org/2000/svg">
  <rect x="0" y="0" width="512" height="512" rx="102" fill="#1A202C"/>
  <path d="M132 88 L292 88 Q310 88 310 106 L310 360 L212 302 L114 360 L114 106 Q114 88 132 88 Z" fill="#718096"/>
  <path d="M188 122 L348 122 Q366 122 366 140 L366 394 L268 336 L170 394 L170 140 Q170 122 188 122 Z" fill="#A0AEC0"/>
  <path d="M244 156 L404 156 Q422 156 422 174 L422 428 L324 370 L226 428 L226 174 Q226 156 244 156 Z" fill="#F7FAFC"/>
</svg>
